<?xml version="1.0" encoding="UTF-8"?><svg id="Layer_1" xmlns="http://www.w3.org/2000/svg" viewBox="0 0 500 500"><rect x="-12" y="-12" width="518" height="524" style="fill:#fff9f0;"/><g><path d="M198.24,301.51c-.21,.57-.33,1.05-.59,1.78-1.71,4.87-3.78,9.45-5.22,14.66-.26,.94-1.66,.97-1.54-.01,.37-2.91,.69-5.48,1.92-8.48-2.25,1.84-4.47-.2-5.85-2.06-1.05-1.42-1.87-3.03-2.51-4.8-.33-.94,.38-1.39,1.04-.66,.83,.92,1.47,1.93,2.25,3.01,.7,.97,1.47,2.09,2.55,2.51,.93,.36,2.21-.03,2.76-.66,1.65-1.92,1.82-3.18,3.68-5.76,.58-.8,1.92-.64,1.51,.47Z" style="fill:#8e6486; stroke:#8e6486; stroke-miterlimit:10;"/><path d="M205.71,312.72c-.43,1.49-1.51,2.68-3.03,3.07-2.17,.54-3.95-.81-4.3-2.99-.34-2.15,1.16-4.57,3.23-5.28,.31-.11,.63-.16,.95-.18,.89-.04,1.84,.25,2.5,.86,.44,.41,.69,.99,.81,1.62,.19,.98,.07,2.08-.16,2.9Zm-1.68-3.35c-.21-.24-.5-.4-.8-.48-.57-.15-1.26-.06-1.69,.37-.76,.77-1.42,1.98-1.64,3.16-.34,1.89,2.24,2.76,3.29,1.28,.8-1.13,.92-1.62,1.09-2.42,.13-.62,.2-1.38-.26-1.92Z" style="fill:#8e6486; stroke:#8e6486; stroke-miterlimit:10;"/><path d="M220.48,316.92c-.92,.87-2.11,.49-2.89-.36-.74-.8-1.31-1.84-1.71-2.84-.11-.28-.22-.57-.31-.87-.07-.22-.26-.62-.23-.86-.47,3.15-2.45,5.19-4.91,4.65-3.2-.71-2.7-4.88-1.37-8.06,.38-.91,1.29-.57,1.01,.38-.37,1.27-1.18,7.44,1.67,5.94,1.52-.8,2.44-3.45,2.72-5.01,.22-1.21,1.28-1.06,1.49,0,.18,.94,.52,1.85,.94,2.72,.2,.41,.41,.82,.65,1.21,.2,.32,.38,.66,.59,.98,.09,.13,.18,.26,.27,.39,.11,.16,.23,.3,.41,.36,.02,0,.05,.01,.07,.02,.31,.06,.61-.1,.91-.17,.3-.07,.61-.06,.89,.06,.1,.04,.19,.1,.25,.18,.33,.45-.14,.98-.45,1.28Z" style="fill:#8e6486; stroke:#8e6486; stroke-miterlimit:10;"/><path d="M232.85,314.55c-2.1-.15-3.12-1.29-3.58-3.67-.11-.58-.15-1.33-.74-1.67-.66-.38-1.14,.33-1.45,.74-.6,.81-1.23,1.72-1.7,2.62-.44,.84-.96,1.68-1.29,2.57-.34,.92-1.7,.57-1.48-.41,.43-1.99,.56-3.99,.39-6.14-.08-.98,.74-1.03,1.16-.13,.35,.76,.47,1.57,.29,2.32,.83-1.38,1.72-2.78,3.1-3.12,.97-.24,1.79-.17,2.41,.61,.87,1.09,.78,4.97,3.11,5.16,.98,.08,.78,1.21-.21,1.14Z" style="fill:#8e6486; stroke:#8e6486; stroke-miterlimit:10;"/><path d="M243.82,310.6c0,.88,0,1.77-.06,2.65-.13,1.78-.45,3.57-1.17,5.21-1.05,2.4-2.98,4.22-5.38,5.25-.9,.39-1.87-.66-.97-1.07,3.77-1.7,5.05-5.34,5.58-9.15-.04,.04-.08,.08-.13,.13-1.5,1.36-4.27,1.98-5.75,.22-1.46-1.74-.64-4.3,.92-5.61,1.15-.97,2.87-1.37,4.34-1.15,.75,.11,1.56,.44,2.06,1.04,.05,.07,.11,.14,.15,.21,.43,.67,.42,1.5,.41,2.27Zm-2.15-1.04c0-.09-.03-.17-.06-.26-.38-1.02-2.09-.51-2.84-.21-.95,.38-1.77,1.11-1.91,2.17-.12,.89,.27,1.61,1.02,1.9,.64,.25,1.39,.02,1.99-.22,.37-.15,.75-.32,1.07-.56,.39-.29,.69-.66,.77-1.2,.08-.53,0-1.09-.04-1.63Z" style="fill:#8e6486; stroke:#8e6486; stroke-miterlimit:10;"/><path d="M265.02,317.35c-1.09-1.95-1.58-4.04-2.22-6.35-.11,.05-.22,.07-.37,.09-1.43,.24-3.3,.28-5.44-.05-.67,2.17-2,4.11-2.85,5.88-.43,.88-1.75,.48-1.46-.47,.31-1.03,.67-2.05,1.12-3.04,.47-1.02,1.02-2.01,1.53-3.01,.5-1,.99-2.01,1.53-2.99,.7-1.26,1.42-2.51,2.17-3.75,.38-.63,.76-1.26,1.14-1.88,.28-.45,.76-1.43,1.43-1.21,.93,.3,1.14,1.81,1.29,2.58,.94,4.6,2.18,8.99,3.51,13.49,.28,.94-.88,1.58-1.36,.72Zm-2.72-8.02c-.7-1.95-.97-3.85-1.35-5.88-.95,2.07-1.88,3.89-3.2,5.85,1.77-.28,3.05-.12,4.55,.03Z" style="fill:#8e6486; stroke:#8e6486; stroke-miterlimit:10;"/><path d="M276,309.79c-.11,.39-.52,.36-.79,.17-.2-.14-.35-.33-.54-.49-.58-.46-1.57-.4-2.19-.03-.57,.35-1.06,1.08-1.42,1.64-.84,1.31-1.12,2.9-1.42,4.4-.19,.99-1.63,.55-1.48-.41,.3-2.03,.66-3.41,.1-5.89-.24-1.05,.73-1.93,1.42-.63,.25,.48,.24,.89,.28,1.42,.44-.67,.83-1.3,1.54-1.77,1.37-.92,3.92-.83,4.46,1.03,.02,.05,.03,.11,.04,.17,.03,.12,.03,.25,0,.38Z" style="fill:#8e6486; stroke:#8e6486; stroke-miterlimit:10;"/><path d="M285.88,307.08c-1.7,.52-2.24,.41-3.92,.53-.1,0-.26,1.21-.28,1.32-.14,.83-.19,1.67-.16,2.5,.02,.7,.19,5.16,1.72,4.01,.8-.59,1.02,.61,.16,1.08-.44,.24-.94,.44-1.46,.42-1.83-.06-2.29-2.53-2.44-3.96-.1-.92-.07-1.84,0-2.76,.02-.24,.19-2.52,.32-2.54-.65,.08-1.31,.12-1.96,.2-.82,.11-.83-1.22,.29-1.34,.76-.08,1.19-.09,1.94-.19,.07,0,.48-1.78,.54-1.97,.23-.68,.52-1.35,.84-2,.18-.36,1.12-1.57,1.46-.69,.13,.34-.11,.91-.18,1.25-.11,.54-.22,1.08-.33,1.63-.02,.11-.24,1.55-.33,1.55,1.63-.06,2.17-.09,3.75-.01,.82,.04,.8,.73,.02,.97Z" style="fill:#8e6486; stroke:#8e6486; stroke-miterlimit:10;"/><path d="M287.71,305.79c-.05-.17-.02-.35,.07-.49,.04-.17,.14-.33,.3-.44,.31-.22,.78-.17,1.06,.08,.27,.25,.36,.62,.22,.96-.32,.79-1.42,.67-1.65-.12Zm3.02,8.64c.02,1.09-.45,2.13-1.54-.01-.92-1.81-.71-4.06-.77-5.98-.13-.98,.95-1.3,1.24-.37,.63,2.04,1.02,4.23,1.07,6.36Z" style="fill:#8e6486; stroke:#8e6486; stroke-miterlimit:10;"/><path d="M298.53,315.29c-.43,.96-1.62,1.35-2.54,1.68-1.3,.47-1.2-.54-.59-.93,.49-.32,2.13-.95,1.75-1.65-.19-.35-1.33-.73-1.73-.93-.92-.45-2.53-1.03-2.74-2.08-.56-2.75,2.68-4.13,4.78-4.62,.96-.22,1.34,.49,.43,.87-1.46,.61-5.23,2.28-2.67,4.23,.84,.64,2.03,.61,2.83,1.35,.6,.56,.83,1.3,.49,2.07Z" style="fill:#8e6486; stroke:#8e6486; stroke-miterlimit:10;"/><path d="M308.86,307.08c-1.7,.52-2.24,.41-3.92,.53-.1,0-.26,1.21-.28,1.32-.14,.83-.19,1.67-.16,2.5,.02,.7,.19,5.16,1.72,4.01,.8-.59,1.02,.61,.16,1.08-.44,.24-.94,.44-1.46,.42-1.83-.06-2.29-2.53-2.44-3.96-.1-.92-.07-1.84,0-2.76,.02-.24,.19-2.52,.32-2.54-.65,.08-1.31,.12-1.96,.2-.82,.11-.83-1.22,.29-1.34,.76-.08,1.19-.09,1.94-.19,.07,0,.48-1.78,.54-1.97,.23-.68,.52-1.35,.84-2,.18-.36,1.12-1.57,1.46-.69,.13,.34-.11,.91-.18,1.25-.11,.54-.22,1.08-.33,1.63-.02,.11-.24,1.55-.33,1.55,1.63-.06,2.17-.09,3.75-.01,.82,.04,.8,.73,.02,.97Z" style="fill:#8e6486; stroke:#8e6486; stroke-miterlimit:10;"/><path d="M315.33,315.29c-.43,.96-1.62,1.35-2.54,1.68-1.3,.47-1.2-.54-.59-.93,.49-.32,2.13-.95,1.75-1.65-.19-.35-1.33-.73-1.73-.93-.92-.45-2.53-1.03-2.74-2.08-.56-2.75,2.68-4.13,4.78-4.62,.96-.22,1.34,.49,.43,.87-1.46,.61-5.23,2.28-2.67,4.23,.84,.64,2.03,.61,2.83,1.35,.6,.56,.83,1.3,.49,2.07Z" style="fill:#8e6486; stroke:#8e6486; stroke-miterlimit:10;"/></g><path d="M154.28,281.05c-4.82,.12-6.66-.23-11.26,.12-4.14,.12-6.78,.92-10.91,1.15,.57-7.01,1.38-11.83,1.84-16.2-2.64,.57-4.59,1.61-8.27,2.18-1.72,.35-3.45,.23-5.05,.23,.35,3.67,.92,7.47,1.26,13.9-4.14-.23-6.78-.92-10.91-1.15-4.25-.34-6.09,0-10.45-.34,.12-13.9-.46-16.2,1.15-30.21,1.15-10.34,4.37-18.72,7.35-27.57,.34-.69-7.12,.12-7.01-.46,1.03-5.51,.46-13.44,1.84-19.64,.11-.69,8.27-1.03,12.18-1.03,4.02-.23,7.81,.34,11.95,0,4.14-.23,6.89,.34,11.03,0,4.02,13.78,9.76,28.03,12.06,41.01,2.76,15.74,2.64,19.64,3.22,38.02Zm-20.79-28.72c-.23-1.72-.69-3.56-1.15-5.63-1.26-5.28-3.33-10.68-5.51-16.31-3.1,7.24-5.74,14.36-6.43,22.74,1.26-.46,2.64-.8,4.02-.92,3.79-.12,6.09,.23,9.07,.11Z" style="fill:#8e6486;"/><path d="M202.6,253.48c3.1,8.27,7.24,16.2,12.41,23.78-3.79,1.61-5.97,2.53-10.11,3.22-4.14,.8-6.78,1.49-11.03,1.72-4.48-7.93-7.7-14.7-10.57-21.83,.34,6.2,.69,12.64,.92,20.56-4.71,.11-6.55-.23-11.26,.11-4.14,.23-6.55,.35-10.68,0,1.26-16.77,2.41-25.61,2.07-42.27,0-6.32-.23-11.26-.46-16.08-.69-.12-1.49-.12-2.18-.23-.46-1.72-1.72-7.12-1.72-10.34,0-2.76,.12-7.24,.57-10.34,35.03-5.4,52.26,4.82,54.56,22.05,1.38,10.57-2.07,22.28-12.52,29.63Zm-18.95-30.55c-.23,3.67-.34,7.58-.57,12.18,0,1.15-.12,2.18-.12,3.33,9.3-1.61,14.13-5.17,12.75-10.91-.8-3.56-5.63-4.48-12.06-4.59Z" style="fill:#8e6486;"/><path d="M256.27,249.35c.69,12.75,1.03,20.1,1.61,32.97-4.14-.23-6.66-.8-10.8-1.03-4.37-.34-6.2-.12-10.45-.46,.11-13.9,.92-21.37,1.03-35.26,0-9.42-.35-16.77-.8-24.35-4.59,.34-8.96,.69-17.92,.8,.23-4.13,.46-6.09,.69-10.34,.23-4.25,.23-6.78,.23-11.03,15.39,.58,13.55,.8,29.06,1.38,21.14,.69,26.07-.23,34.35-.58-.12,4.71-.23,5.51,0,10.11,.11,4.13,.34,8.04,.57,12.17-11.14-.8-17.57-2.64-27.22-3.1-.46,9.31-.8,17.46-.34,28.72Zm9.67,6.34c.08-8.41-.74-13.51-1.65-22,2.97,.08,4.86,.5,7.83,.58,3.3,.16,4.61,0,8.08,.08-.41,9.31-1.48,14.34-.82,23.24,.41,6.51,.66,10.22,1.15,16.73-2.97-.17-4.86-.49-7.83-.58-3.05-.17-4.37,0-7.5-.17,.08-7.09,.66-10.8,.74-17.88Z" style="fill:#8e6486;"/><path d="M340.92,265.54c.92,3.79,1.49,8.96,1.26,11.72-31.01,16.65-54.91-5.17-53.76-35.49,.8-23.43,16.77-41.58,58.24-43.77,23.32-1.26,43.31,1.72,48.01,2.64,.46,3.22,.57,7.81-.23,12.41-.92,4.25-1.95,7.81-3.1,8.96-8.84-2.99-29.98-4.94-47.21-3.79-19.53,1.38-37.33,7.58-35.84,27.22,1.15,14.01,14.93,23.2,27.45,9.19,1.95,1.84,4.25,7.01,5.17,10.91Zm30.78,17.46c-16.66-.8-29.41-12.29-26.53-35.38,1.72-13.9,10.8-25.73,28.95-25.04,15.62,.23,23.09,12.52,24.81,25.84,3.1,24.7-11.14,35.49-27.22,34.57Zm11.6-32.16c-.8-8.73-4.59-14.7-13.33-12.29-4.48,1.38-7.35,5.51-7.81,11.49-1.03,13.55,5.4,16.31,10.11,16.31h.11c4.37,.12,12.06-2.76,10.91-15.51Z" style="fill:#efd3ef;"/><g><path d="M404.45,277.73c-.28,0-.55-.01-.83,0s-.53,.23-.73,.41c-.16,.15-.3,.34-.44,.51-.12,.14-.23,.27-.32,.43-.14,.24-.24,.55-.31,.82-.06,.23-.05,.44-.05,.68,0,.25,0,.5,.21,.68,.13,.11,.29,.17,.46,.21,.26,.06,.53,.12,.79,.15s.49,.04,.74,.04c.18,0,.41,0,.55-.12,.12-.1,.24-.22,.36-.32,.17-.14,.31-.26,.44-.43,.17-.23,.27-.51,.37-.77,.05-.14,.03-.31,.03-.46,0-.13,.03-.29,0-.41-.07-.38-.38-.69-.64-.95-.07-.07-.13-.14-.2-.21-.07-.08-.11-.07-.2-.08s-.2-.06-.28-.12c-.04-.03-.19-.11-.2-.16" style="fill:#efd3ef;"/><path d="M404.45,271.77c-2.2-.03-4.18,.58-5.77,2.15-1.18,1.17-2.06,2.58-2.54,4.17-.52,1.72-.41,3.66,.28,5.3,1.09,2.57,3.41,3.7,6.02,4.05,.58,.08,1.14,.16,1.73,.15,1.78-.04,3.24-.72,4.57-1.86,1.24-1.05,2.15-2.39,2.63-3.96,1.24-4.06-1.2-8.49-5.24-9.68l1.42,.6c-.09-.04-.17-.09-.25-.15l1.2,.93-.09-.09c-2.17-2.25-6.27-2.34-8.42,0s-2.31,6.02,0,8.42c.74,.77,2.13,1.67,3.21,1.82l-1.42-.6,.09,.06-1.2-.93c.17,.18,.35,.36,.52,.55l-.93-1.2c.1,.12,.19,.25,.25,.39l-.6-1.42,.07,.22-.21-1.58c0,.22,0,.43,0,.64l.21-1.58c-.04,.24-.1,.41-.19,.63l.6-1.42c-.06,.13-.13,.26-.21,.37l.93-1.2c-.24,.28-.53,.51-.81,.76l1.2-.93-.17,.08,1.42-.6-.19,.03,1.58-.21c-.31,0-.62-.01-.94-.04l1.58,.21c-.35-.05-.69-.12-1.03-.22l1.42,.6-.22-.13,1.2,.93-.12-.15,1.53,2.63-.06-.17,.21,1.58c-.03-.27-.03-.55-.01-.82l-.21,1.58c.05-.3,.14-.57,.25-.85l-.6,1.42c.06-.15,.15-.29,.24-.41l-.93,1.2c.24-.3,.48-.6,.77-.85l-1.2,.93c.11-.1,.23-.17,.37-.23l-1.42,.6,.2-.04-1.58,.21c.28,0,.55,0,.83,0,3.11,.04,6.1-2.76,5.95-5.95s-2.62-5.91-5.95-5.95h0Z" style="fill:#8e6486;"/></g></svg>